<svg xmlns="http://www.w3.org/2000/svg" width="1200" height="630" viewBox="0 0 1200 630" role="img" aria-labelledby="og-title">
  <title id="og-title">Filelathe - swiss-army file utility</title>
  <defs>
    <radialGradient id="glow" cx="18%" cy="12%" r="70%">
      <stop offset="0%" stop-color="#e8f0e8"/>
      <stop offset="55%" stop-color="#f7f5ef"/>
      <stop offset="100%" stop-color="#efe9dc"/>
    </radialGradient>
    <linearGradient id="wash" x1="0" y1="0" x2="1" y2="1">
      <stop offset="0%" stop-color="#faf8f3"/>
      <stop offset="100%" stop-color="#e4eee8"/>
    </linearGradient>
  </defs>

  <rect width="1200" height="630" fill="url(#wash)"/>
  <rect width="1200" height="630" fill="url(#glow)" opacity="0.85"/>

  <g stroke="#2a6b5a" stroke-opacity="0.07" stroke-width="1.5">
    <path d="M-40 520 L420 80"/>
    <path d="M80 640 L560 160"/>
    <path d="M720 -20 L1280 420"/>
    <path d="M860 40 L1340 480"/>
  </g>

  <g transform="translate(720 135) scale(5.6)" fill="none">
    <path
      d="M18 8h18l12 12v32a4 4 0 0 1-4 4H18a4 4 0 0 1-4-4V12a4 4 0 0 1 4-4Z"
      fill="#2a6b5a"
      fill-opacity="0.12"
      stroke="#2a6b5a"
      stroke-width="2.5"
      stroke-linejoin="round"
    />
    <path
      d="M36 8v10a2 2 0 0 0 2 2h10"
      stroke="#2a6b5a"
      stroke-width="2.5"
      stroke-linejoin="round"
    />
    <circle cx="14" cy="36" r="5.5" stroke="#2a6b5a" stroke-width="2.5"/>
    <circle cx="14" cy="36" r="2" fill="#2a6b5a"/>
    <path d="M19.5 36H46" stroke="#2a6b5a" stroke-width="2.5" stroke-linecap="round"/>
    <path d="M46 36h6l3-3.5V39.5L52 36Z" fill="#2a6b5a"/>
    <path
      d="M24 28h16M24 44h12"
      stroke="#2a6b5a"
      stroke-width="2"
      stroke-linecap="round"
      opacity="0.45"
    />
  </g>

  <text
    x="72"
    y="168"
    font-family="ui-sans-serif, system-ui, -apple-system, 'Segoe UI', sans-serif"
    font-size="22"
    font-weight="600"
    letter-spacing="0.18em"
    fill="#6b726c"
  >SWISS-ARMY FILE UTILITY</text>

  <text
    x="72"
    y="280"
    font-family="ui-sans-serif, system-ui, -apple-system, 'Segoe UI', sans-serif"
    font-size="92"
    font-weight="700"
    letter-spacing="-0.03em"
    fill="#2a6b5a"
  >Filelathe</text>

  <text
    x="72"
    y="360"
    font-family="ui-sans-serif, system-ui, -apple-system, 'Segoe UI', sans-serif"
    font-size="30"
    font-weight="500"
    fill="#5c635c"
  >Drop a file. Get the right tool &#8212;</text>
  <text
    x="72"
    y="402"
    font-family="ui-sans-serif, system-ui, -apple-system, 'Segoe UI', sans-serif"
    font-size="30"
    font-weight="500"
    fill="#5c635c"
  >or a mini-app invented for it.</text>

  <text
    x="72"
    y="560"
    font-family="ui-sans-serif, system-ui, -apple-system, 'Segoe UI', sans-serif"
    font-size="24"
    font-weight="500"
    fill="#7a857c"
  >filelathe.com &#183; json-render</text>
</svg>
